# Blender v2.93.0 OBJ File: 'Cuarto.blend'
# www.blender.org
mtllib Cup.mtl
v -0.412820 -1.661214 0.584980
v -0.417959 -1.646659 0.717703
v -0.367239 -1.649364 0.717703
v -0.373896 -1.663289 0.584980
v -0.333288 -1.687139 0.717703
v -0.347842 -1.692278 0.584980
v -0.335992 -1.737859 0.717703
v -0.349918 -1.731201 0.584980
v -0.373770 -1.771811 0.717703
v -0.378909 -1.757256 0.584980
v -0.424490 -1.769106 0.717703
v -0.417830 -1.755180 0.584980
v -0.458442 -1.731329 0.717703
v -0.443885 -1.726189 0.584980
v -0.455736 -1.680611 0.717703
v -0.441809 -1.687268 0.584980
v -0.411113 -1.666048 0.599384
v -0.376110 -1.667915 0.599387
v -0.369596 -1.654294 0.718339
v -0.416140 -1.651812 0.718339
v -0.352679 -1.693985 0.599385
v -0.338441 -1.688958 0.718339
v -0.354545 -1.728990 0.599387
v -0.340923 -1.735501 0.718339
v -0.380616 -1.752420 0.599384
v -0.375589 -1.766658 0.718339
v -0.415618 -1.750554 0.599387
v -0.422132 -1.764176 0.718339
v -0.439051 -1.724482 0.599384
v -0.453286 -1.729509 0.718339
v -0.437183 -1.689479 0.599387
v -0.450806 -1.682968 0.718339
v -0.432779 -1.793358 0.772328
v -0.394994 -1.719295 0.624088
v -0.407261 -1.707605 0.626802
v -0.445043 -1.781670 0.775042
v -0.395884 -1.697512 0.634745
v -0.433666 -1.771574 0.782985
v -0.383619 -1.709200 0.632030
v -0.421402 -1.783262 0.780271
v -0.465985 -1.715740 0.784153
v -0.405598 -1.713982 0.625286
v -0.399684 -1.698058 0.627711
v -0.460071 -1.699816 0.786577
v -0.384774 -1.704446 0.633308
v -0.445163 -1.706208 0.792172
v -0.390689 -1.720370 0.630883
v -0.451077 -1.722132 0.789747
vt 0.890177 0.480937
vt 0.857425 0.480937
vt 0.857425 0.805352
vt 0.890177 0.805352
vt 0.824674 0.480937
vt 0.824674 0.805352
vt 0.955681 0.480937
vt 0.922929 0.480937
vt 0.922929 0.805352
vt 0.955681 0.805352
vt 0.922929 0.448185
vt 0.955681 0.448185
vt 0.890177 0.063091
vt 0.857425 0.063091
vt 0.857426 0.387506
vt 0.890177 0.387506
vt 0.824673 0.063092
vt 0.824674 0.387506
vt 0.955681 0.063091
vt 0.922929 0.063091
vt 0.922929 0.387506
vt 0.955681 0.387506
vt 0.922929 0.030339
vt 0.955681 0.030339
vt 0.342365 0.656646
vt 0.407879 0.419566
vt 0.487602 0.434883
vt 0.429382 0.681275
vt 0.571291 0.445548
vt 0.519572 0.702707
vt 0.662377 0.449687
vt 0.612698 0.721281
vt 0.763995 0.435377
vt 0.708453 0.738488
vt 0.030339 0.543432
vt 0.106210 0.301180
vt 0.180132 0.346402
vt 0.099958 0.568666
vt 0.254392 0.375948
vt 0.177959 0.599323
vt 0.330494 0.399962
vt 0.258607 0.629083
vt 0.571157 0.952454
vt 0.515615 0.872578
vt 0.532822 0.776823
vt 0.763995 0.818364
vt 0.746788 0.914119
vt 0.666912 0.969661
vt 0.457670 0.184445
vt 0.517296 0.191956
vt 0.489143 0.426066
vt 0.409904 0.411103
vt 0.578416 0.194126
vt 0.572228 0.436123
vt 0.640549 0.190461
vt 0.661986 0.438973
vt 0.702621 0.180194
vt 0.757271 0.424146
vt 0.236640 0.099745
vt 0.291170 0.130698
vt 0.183888 0.339107
vt 0.113345 0.296015
vt 0.344217 0.153920
vt 0.257404 0.367891
vt 0.399866 0.171789
vt 0.332986 0.391714
vt 0.615763 0.040606
vt 0.677835 0.030339
vt 0.728986 0.066971
vt 0.739253 0.129043
vt 0.589398 0.153830
vt 0.579131 0.091758
vn -0.6631 -0.5883 -0.4629
vn -0.7148 0.6812 0.1582
vn 0.6631 0.5883 0.4629
vn 0.7149 -0.6811 -0.1581
vn -0.2222 -0.4358 0.8722
vn -0.8689 0.3724 -0.3262
vn 0.3447 0.9280 0.1413
vn 0.8689 -0.3724 0.3262
vn -0.3447 -0.9280 -0.1413
vn -0.3552 -0.0104 0.9347
vn -0.3307 0.9366 -0.1155
vn 0.4284 0.8962 -0.1155
vn 0.9366 0.3307 -0.1155
vn 0.8962 -0.4285 -0.1155
vn 0.3307 -0.9366 -0.1155
vn -0.4285 -0.8961 -0.1155
vn -0.9366 -0.3307 -0.1155
vn -0.8961 0.4285 -0.1155
vn -0.0000 0.0000 -1.0000
vn 0.3303 -0.9354 0.1259
vn -0.4279 -0.8950 0.1259
vn -0.9354 -0.3303 0.1259
vn -0.8950 0.4279 0.1259
vn -0.3303 0.9354 0.1259
vn 0.4279 0.8950 0.1259
vn 0.9354 0.3303 0.1259
vn 0.8950 -0.4279 0.1259
vn -0.0000 -0.0000 1.0000
vn 0.0499 0.1043 0.9933
vn -0.0385 0.1090 0.9933
vn 0.1090 0.0385 0.9933
vn 0.1043 -0.0499 0.9933
vn 0.0385 -0.1090 0.9933
vn -0.0499 -0.1043 0.9933
vn -0.1090 -0.0385 0.9933
vn -0.1043 0.0499 0.9933
usemtl CupPencils
s off
f 33/1/1 36/2/1 35/3/1 34/4/1
f 36/2/2 38/5/2 37/6/2 35/3/2
f 38/7/3 40/8/3 39/9/3 37/10/3
f 40/8/4 33/1/4 34/4/4 39/9/4
f 33/11/5 40/8/5 38/7/5 36/12/5
f 41/13/6 44/14/6 43/15/6 42/16/6
f 44/14/7 46/17/7 45/18/7 43/15/7
f 46/19/8 48/20/8 47/21/8 45/22/8
f 48/20/9 41/13/9 42/16/9 47/21/9
f 41/23/10 48/20/10 46/19/10 44/24/10
s 1
f 1/25/11 2/26/11 3/27/12 4/28/12
f 4/28/12 3/27/12 5/29/13 6/30/13
f 6/30/13 5/29/13 7/31/14 8/32/14
f 8/32/14 7/31/14 9/33/15 10/34/15
f 10/35/15 9/36/15 11/37/16 12/38/16
f 12/38/16 11/37/16 13/39/17 14/40/17
f 14/40/17 13/39/17 15/41/18 16/42/18
f 16/42/18 15/41/18 2/26/11 1/25/11
f 1/43/19 4/44/19 6/45/19 8/32/19 10/34/19 12/46/19 14/47/19 16/48/19
f 17/49/20 18/50/21 19/51/21 20/52/20
f 18/50/21 21/53/22 22/54/22 19/51/21
f 21/53/22 23/55/23 24/56/23 22/54/22
f 23/55/23 25/57/24 26/58/24 24/56/23
f 25/59/24 27/60/25 28/61/25 26/62/24
f 27/60/25 29/63/26 30/64/26 28/61/25
f 29/63/26 31/65/27 32/66/27 30/64/26
f 31/65/27 17/49/20 20/52/20 32/66/27
f 17/67/28 31/68/28 29/69/28 27/70/28 25/57/28 23/55/28 21/71/28 18/72/28
f 3/27/29 2/26/30 20/52/30 19/51/29
f 5/29/31 3/27/29 19/51/29 22/54/31
f 7/31/32 5/29/31 22/54/31 24/56/32
f 9/33/33 7/31/32 24/56/32 26/58/33
f 11/37/34 9/36/33 26/62/33 28/61/34
f 13/39/35 11/37/34 28/61/34 30/64/35
f 15/41/36 13/39/35 30/64/35 32/66/36
f 2/26/30 15/41/36 32/66/36 20/52/30
