# Blender v2.93.0 OBJ File: 'Cuarto.blend'
# www.blender.org
mtllib Desk.mtl
v 0.934386 -2.432765 -0.459371
v 0.934386 -1.574906 -0.459371
v 0.804395 -1.574906 -0.459371
v 0.804395 -2.432765 -0.459371
v 0.934386 -1.574906 0.514124
v 0.804395 -1.574906 0.514124
v 0.804395 -2.432765 0.514124
v 0.934386 -2.432765 0.514124
v 0.934386 -2.450980 -0.477587
v 0.804395 -2.450980 -0.477587
v 0.804395 -1.556690 -0.477587
v 0.934386 -1.556690 -0.477587
v 0.804395 -1.556690 0.514124
v 0.934386 -1.556690 0.514124
v 0.934386 -2.450980 0.514124
v 0.804395 -2.450980 0.514124
v -0.801872 -2.432765 -0.459371
v -0.671881 -2.432765 -0.459371
v -0.671881 -1.574905 -0.459371
v -0.801872 -1.574905 -0.459371
v -0.671881 -1.574906 0.514124
v -0.801872 -1.574906 0.514124
v -0.801872 -2.432765 0.514124
v -0.671881 -2.432765 0.514124
v -0.801872 -2.450980 -0.477587
v -0.801872 -1.556690 -0.477587
v -0.671881 -1.556690 -0.477587
v -0.671881 -2.450980 -0.477587
v -0.801872 -1.556690 0.514124
v -0.671881 -1.556690 0.514124
v -0.671881 -2.450980 0.514124
v -0.801872 -2.450980 0.514124
v 1.064133 -1.607880 0.584902
v 1.064133 -1.607880 0.497375
v 1.064133 -2.399790 0.497374
v 1.064133 -2.399790 0.584902
v -0.851331 -1.523163 0.584902
v -0.851331 -1.523163 0.497375
v 0.983845 -1.523163 0.497375
v 0.983845 -1.523163 0.584902
v -0.891475 -1.534512 0.497375
v -0.920862 -1.565521 0.497375
v -0.931619 -1.607880 0.497375
v -0.931619 -2.399790 0.497374
v -0.920862 -2.442149 0.497374
v -0.891475 -2.473158 0.497374
v -0.851331 -2.484508 0.497374
v 0.983845 -2.484508 0.497374
v 1.023989 -2.473158 0.497374
v 1.053376 -2.442149 0.497374
v 1.053376 -1.565522 0.497375
v 1.023989 -1.534513 0.497375
v 0.983845 -2.484508 0.584902
v -0.851331 -2.484508 0.584902
v -0.931619 -2.399790 0.584902
v -0.931619 -1.607880 0.584902
v 1.053376 -2.442149 0.584902
v 1.023989 -2.473158 0.584902
v -0.920862 -2.442149 0.584902
v -0.891475 -2.473158 0.584902
v -0.891475 -1.534512 0.584902
v -0.920862 -1.565521 0.584902
v 1.053376 -1.565522 0.584902
v 1.023989 -1.534513 0.584902
v -0.125446 -1.561075 0.031498
v -0.125446 -1.561075 0.507193
v -0.125446 -2.446595 0.507193
v -0.125446 -2.446595 0.031498
v -0.664861 -2.446595 0.011133
v -0.664861 -2.446595 0.507193
v -0.664861 -1.561075 0.507193
v -0.664861 -1.561075 0.011133
v -0.641848 -1.561075 0.034145
v -0.641848 -1.561075 0.484180
v -0.641848 -1.670222 0.484180
v -0.641848 -1.670222 0.034145
v -0.148458 -1.561075 0.034145
v -0.139847 -1.561075 0.025534
v -0.145811 -1.561075 0.011133
v -0.145811 -2.446595 0.011133
v -0.135628 -2.446595 0.013862
v -0.128175 -2.446595 0.021315
v -0.148458 -1.561075 0.484180
v -0.148458 -1.670222 0.034145
v -0.148458 -1.670222 0.484180
v -0.128175 -1.561075 0.021315
v -0.135628 -1.561075 0.013862
v -0.395401 -1.556096 0.262722
v -0.395401 -1.556096 0.481972
v -0.153219 -1.556096 0.481972
v -0.153219 -1.556096 0.262722
v -0.153219 -1.735586 0.481972
v -0.153219 -1.735586 0.262722
v -0.395401 -1.735586 0.262722
v -0.395401 -1.735586 0.481972
v -0.395401 -1.544197 0.364355
v -0.395401 -1.544197 0.388105
v -0.277454 -1.544197 0.388105
v -0.277454 -1.544197 0.364355
v -0.277454 -1.534136 0.388105
v -0.264059 -1.534136 0.388105
v -0.261383 -1.534862 0.388105
v -0.259423 -1.536841 0.388105
v -0.258705 -1.539546 0.388105
v -0.258705 -1.544197 0.388105
v -0.277454 -1.534136 0.364355
v -0.395401 -1.534136 0.388105
v -0.395401 -1.534136 0.364355
v -0.264059 -1.534136 0.364355
v -0.258705 -1.544197 0.364355
v -0.258705 -1.539546 0.364355
v -0.258705 -1.559233 0.388105
v -0.277454 -1.559232 0.388105
v -0.277454 -1.559232 0.364355
v -0.258705 -1.559233 0.364355
v -0.261383 -1.534862 0.364355
v -0.259423 -1.536841 0.364355
v -0.637586 -1.556096 0.262722
v -0.637586 -1.556096 0.481972
v -0.637586 -1.735586 0.262722
v -0.637586 -1.735586 0.481972
v -0.513349 -1.544197 0.364355
v -0.513349 -1.544197 0.388105
v -0.532098 -1.544197 0.388105
v -0.532098 -1.539546 0.388105
v -0.531381 -1.536841 0.388105
v -0.529421 -1.534862 0.388105
v -0.526745 -1.534136 0.388105
v -0.513349 -1.534136 0.388105
v -0.513349 -1.534136 0.364355
v -0.526745 -1.534136 0.364355
v -0.532098 -1.544197 0.364355
v -0.532098 -1.539546 0.364355
v -0.513349 -1.559232 0.388105
v -0.532098 -1.559232 0.388105
v -0.532098 -1.559232 0.364355
v -0.513349 -1.559232 0.364355
v -0.529421 -1.534862 0.364355
v -0.531381 -1.536841 0.364355
v -0.395401 -1.556096 0.037992
v -0.395401 -1.556096 0.257241
v -0.153219 -1.556096 0.257241
v -0.153219 -1.556096 0.037992
v -0.153219 -1.735586 0.257241
v -0.153219 -1.735586 0.037992
v -0.395401 -1.735586 0.037992
v -0.395401 -1.735586 0.257241
v -0.395401 -1.544197 0.139624
v -0.395401 -1.544197 0.163376
v -0.277454 -1.544197 0.163376
v -0.277454 -1.544197 0.139624
v -0.277454 -1.534136 0.163376
v -0.264059 -1.534136 0.163376
v -0.261383 -1.534862 0.163376
v -0.259423 -1.536841 0.163376
v -0.258705 -1.539546 0.163376
v -0.258705 -1.544197 0.163376
v -0.277454 -1.534136 0.139624
v -0.395401 -1.534136 0.163376
v -0.395401 -1.534136 0.139624
v -0.264059 -1.534136 0.139624
v -0.258705 -1.544197 0.139624
v -0.258705 -1.539546 0.139624
v -0.258705 -1.559233 0.163376
v -0.277454 -1.559232 0.163376
v -0.277454 -1.559232 0.139624
v -0.258705 -1.559232 0.139624
v -0.261383 -1.534862 0.139624
v -0.259423 -1.536841 0.139624
v -0.637586 -1.556096 0.037992
v -0.637586 -1.556096 0.257241
v -0.637586 -1.735586 0.037992
v -0.637586 -1.735586 0.257241
v -0.513349 -1.544197 0.139624
v -0.513349 -1.544197 0.163376
v -0.532098 -1.544197 0.163376
v -0.532098 -1.539546 0.163376
v -0.531381 -1.536841 0.163376
v -0.529421 -1.534862 0.163376
v -0.526745 -1.534136 0.163376
v -0.513349 -1.534136 0.163376
v -0.513349 -1.534136 0.139624
v -0.526745 -1.534136 0.139624
v -0.532098 -1.544197 0.139624
v -0.532098 -1.539546 0.139624
v -0.513349 -1.559232 0.163376
v -0.532098 -1.559232 0.163376
v -0.532098 -1.559232 0.139624
v -0.513349 -1.559232 0.139624
v -0.529421 -1.534861 0.139624
v -0.531381 -1.536841 0.139624
vt 0.823549 0.646137
vt 0.827972 0.787761
vt 0.805023 0.787593
vt 0.802753 0.646289
vt 0.818575 0.973276
vt 0.798394 0.972350
vt 0.793649 0.459940
vt 0.818532 0.458724
vt 0.827329 0.646039
vt 0.851614 0.646320
vt 0.855031 0.787463
vt 0.830794 0.787834
vt 0.857238 0.975800
vt 0.821360 0.973426
vt 0.821345 0.458636
vt 0.857263 0.459215
vt 0.854777 0.646370
vt 0.858811 0.787391
vt 0.860763 0.975763
vt 0.860763 0.459327
vt 0.722909 0.788300
vt 0.702113 0.788147
vt 0.704384 0.646846
vt 0.727332 0.646678
vt 0.697754 0.462086
vt 0.717935 0.461160
vt 0.717893 0.975714
vt 0.693009 0.974498
vt 0.726689 0.788398
vt 0.730155 0.646604
vt 0.754391 0.646976
vt 0.750974 0.788116
vt 0.720720 0.461011
vt 0.756598 0.458636
vt 0.756624 0.975222
vt 0.720706 0.975801
vt 0.754137 0.788067
vt 0.758172 0.647048
vt 0.760123 0.458673
vt 0.760123 0.975110
vt 0.190262 0.858348
vt 0.145271 0.858348
vt 0.145271 0.797003
vt 0.190262 0.797003
vt 0.145271 0.752011
vt 0.190262 0.752011
vt 0.235254 0.858348
vt 0.235254 0.797003
vt 0.267734 0.814905
vt 0.313861 0.814905
vt 0.313861 0.877798
vt 0.267734 0.877798
vt 0.476457 0.793338
vt 0.476457 0.823968
vt 0.481454 0.823968
vt 0.481454 0.793338
vt 0.481454 0.828837
vt 0.482650 0.828837
vt 0.483345 0.828650
vt 0.483854 0.828142
vt 0.484040 0.827447
vt 0.484040 0.823968
vt 0.489037 0.823968
vt 0.489037 0.793338
vt 0.484040 0.793338
vt 0.491623 0.823968
vt 0.491623 0.793338
vt 0.489037 0.827447
vt 0.489037 0.830801
vt 0.489037 0.829605
vt 0.484040 0.829605
vt 0.484040 0.830801
vt 0.477591 0.823968
vt 0.477591 0.828837
vt 0.491623 0.828837
vt 0.495486 0.828837
vt 0.495486 0.823968
vt 0.476457 0.827832
vt 0.481454 0.827832
vt 0.484040 0.834665
vt 0.489037 0.834665
vt 0.484040 0.828166
vt 0.489037 0.828166
vt 0.484040 0.828886
vt 0.489037 0.828886
vt 0.489223 0.828142
vt 0.489732 0.828651
vt 0.490427 0.828837
vt 0.190262 0.919693
vt 0.145271 0.919693
vt 0.190262 0.964685
vt 0.145271 0.964685
vt 0.235254 0.919693
vt 0.267734 0.752012
vt 0.313861 0.752012
vt 0.481454 0.762708
vt 0.476457 0.762708
vt 0.484040 0.762708
vt 0.484040 0.759229
vt 0.483854 0.758534
vt 0.483345 0.758026
vt 0.482650 0.757839
vt 0.481454 0.757839
vt 0.489037 0.762708
vt 0.491623 0.762708
vt 0.489037 0.759229
vt 0.489037 0.755875
vt 0.484040 0.755875
vt 0.484040 0.757071
vt 0.489037 0.757071
vt 0.477591 0.757839
vt 0.477591 0.762708
vt 0.491623 0.757839
vt 0.495486 0.762708
vt 0.495486 0.757839
vt 0.481454 0.758844
vt 0.476457 0.758844
vt 0.489037 0.752012
vt 0.484040 0.752012
vt 0.489037 0.758510
vt 0.484040 0.758510
vt 0.489037 0.757790
vt 0.484040 0.757790
vt 0.490427 0.757839
vt 0.489732 0.758026
vt 0.489223 0.758534
vt 0.067799 0.858348
vt 0.112790 0.858348
vt 0.112790 0.919693
vt 0.067799 0.919693
vt 0.112790 0.964685
vt 0.067799 0.964685
vt 0.022807 0.858348
vt 0.022807 0.919693
vt 0.346341 0.814905
vt 0.392468 0.814905
vt 0.392468 0.877798
vt 0.346341 0.877798
vt 0.424948 0.793338
vt 0.424948 0.823968
vt 0.429945 0.823968
vt 0.429945 0.793338
vt 0.429945 0.828837
vt 0.431141 0.828837
vt 0.431836 0.828651
vt 0.432345 0.828142
vt 0.432531 0.827447
vt 0.432531 0.823968
vt 0.437528 0.823968
vt 0.437528 0.793338
vt 0.432531 0.793338
vt 0.440113 0.823968
vt 0.440113 0.793338
vt 0.437528 0.827447
vt 0.437528 0.830801
vt 0.437528 0.829605
vt 0.432531 0.829605
vt 0.432531 0.830801
vt 0.426082 0.823968
vt 0.426082 0.828837
vt 0.440113 0.828837
vt 0.443977 0.828837
vt 0.443977 0.823968
vt 0.424948 0.827832
vt 0.429945 0.827832
vt 0.432531 0.834665
vt 0.437528 0.834665
vt 0.432531 0.828166
vt 0.437528 0.828166
vt 0.432531 0.828886
vt 0.437528 0.828886
vt 0.437714 0.828142
vt 0.438223 0.828651
vt 0.438918 0.828837
vt 0.067799 0.797003
vt 0.112790 0.797003
vt 0.067799 0.752012
vt 0.112790 0.752012
vt 0.022807 0.797003
vt 0.346341 0.752012
vt 0.392468 0.752012
vt 0.429945 0.762708
vt 0.424948 0.762708
vt 0.432531 0.762708
vt 0.432531 0.759229
vt 0.432345 0.758534
vt 0.431836 0.758026
vt 0.431141 0.757839
vt 0.429945 0.757839
vt 0.437528 0.762708
vt 0.440113 0.762708
vt 0.437528 0.759229
vt 0.437528 0.755875
vt 0.432531 0.755875
vt 0.432531 0.757071
vt 0.437528 0.757071
vt 0.426082 0.757839
vt 0.426082 0.762708
vt 0.440113 0.757839
vt 0.443977 0.762708
vt 0.443977 0.757839
vt 0.429945 0.758844
vt 0.424948 0.758844
vt 0.437528 0.752012
vt 0.432531 0.752012
vt 0.437528 0.758510
vt 0.432531 0.758510
vt 0.437528 0.757790
vt 0.432531 0.757790
vt 0.438918 0.757839
vt 0.438223 0.758026
vt 0.437714 0.758534
vt 0.061684 0.066928
vt 0.274431 0.068603
vt 0.274627 0.043791
vt 0.061879 0.042115
vt 0.045119 0.579017
vt 0.045073 0.089858
vt 0.020866 0.081965
vt 0.020866 0.585947
vt 0.566792 0.588551
vt 0.566792 0.084568
vt 0.563838 0.073544
vt 0.555768 0.065473
vt 0.544743 0.062519
vt 0.338642 0.062519
vt 0.327617 0.065473
vt 0.319547 0.073544
vt 0.316593 0.084568
vt 0.316593 0.588550
vt 0.319547 0.599575
vt 0.327617 0.607646
vt 0.338642 0.610600
vt 0.544743 0.610599
vt 0.555768 0.607645
vt 0.563838 0.599575
vt 0.292340 0.091498
vt 0.292386 0.580657
vt 0.275775 0.603588
vt 0.063027 0.601912
vt 0.062832 0.626724
vt 0.275580 0.628400
vt 0.284993 0.074135
vt 0.305403 0.059419
vt 0.295996 0.048182
vt 0.290837 0.081395
vt 0.312271 0.071823
vt 0.295136 0.621275
vt 0.303535 0.612083
vt 0.286115 0.598077
vt 0.311186 0.601166
vt 0.290989 0.590371
vt 0.025188 0.598692
vt 0.046622 0.589120
vt 0.032056 0.611097
vt 0.052466 0.596380
vt 0.041462 0.622333
vt 0.042323 0.049240
vt 0.033924 0.058433
vt 0.051344 0.072439
vt 0.026273 0.069350
vt 0.046470 0.080144
vt 0.753089 0.191061
vt 0.693097 0.250525
vt 0.582403 0.138847
vt 0.642396 0.079383
vt 0.934380 0.363459
vt 0.871819 0.425468
vt 0.761125 0.313790
vt 0.823687 0.251781
vt 0.818412 0.251662
vt 0.761194 0.308703
vt 0.757971 0.286323
vt 0.795871 0.254714
vt 0.755589 0.193602
vt 0.755615 0.191699
vt 0.758226 0.190904
vt 0.862083 0.079226
vt 0.861119 0.077688
vt 0.861053 0.075873
vt 0.861903 0.074269
vt 0.917695 0.014276
vt 0.985724 0.077541
vt 0.927544 0.140102
vt 0.657268 0.425468
vt 0.589239 0.362203
vt 0.698371 0.250644
vt 0.758812 0.215982
vt 0.720913 0.247592
vt 0.755658 0.188516
vt 0.756002 0.188836
vt 0.757474 0.190205
vt 0.756942 0.189710
vt 0.860799 0.078032
vt 0.755658 0.188516
vt 0.859515 0.076838
vt 0.643680 0.078110
vt 0.754374 0.189789
vn 0.0000 -0.0000 1.0000
vn 0.0000 -1.0000 -0.0000
vn 0.0000 1.0000 0.0000
vn 0.0000 0.0000 -1.0000
vn 1.0000 0.0000 0.0000
vn -1.0000 -0.0000 0.0000
vn 0.2617 0.9652 -0.0005
vn 0.2617 0.9652 0.0005
vn 0.7106 0.7036 0.0000
vn 0.9665 0.2565 0.0003
vn 0.9665 0.2565 -0.0003
vn -0.2617 0.9652 -0.0005
vn -0.2617 0.9652 0.0005
vn -0.7106 0.7036 0.0000
vn -0.9667 0.2561 0.0000
vn 0.2617 0.9652 -0.0003
vn 0.2617 0.9652 0.0003
vn -0.2617 0.9652 -0.0003
vn -0.2617 0.9652 0.0003
vn -0.9667 0.2560 -0.0003
vn -0.9667 0.2560 0.0003
vn 0.9923 0.1240 0.0000
vn 0.9923 -0.1240 0.0000
vn -0.1373 0.9905 0.0000
vn 0.1373 0.9905 0.0000
vn 0.1373 -0.9905 0.0000
vn -0.1373 -0.9905 0.0000
vn -0.9923 -0.1240 0.0000
vn -0.9923 0.1240 0.0000
vn 0.8758 -0.4826 0.0000
vn 0.7258 -0.6879 0.0000
vn 0.2721 -0.9623 0.0000
vn -0.8758 -0.4826 0.0000
vn -0.7258 -0.6879 0.0000
vn -0.2721 -0.9623 0.0000
vn -0.2721 0.9623 0.0000
vn -0.7258 0.6879 0.0000
vn -0.8758 0.4826 0.0000
vn 0.8758 0.4826 0.0000
vn 0.7258 0.6879 0.0000
vn 0.2721 0.9623 0.0000
vn 0.9914 -0.0000 -0.1306
vn 0.1306 0.0000 -0.9914
vn 0.5000 0.0000 -0.8660
vn 0.8660 0.0000 -0.5000
usemtl Desk.001
s off
f 1/1/1 2/2/1 3/3/1 4/4/1
f 3/3/2 2/2/2 5/5/2 6/6/2
f 1/1/3 4/4/3 7/7/3 8/8/3
f 9/9/4 10/10/4 11/11/4 12/12/4
f 11/11/3 13/13/3 14/14/3 12/12/3
f 9/9/2 15/15/2 16/16/2 10/10/2
f 2/2/5 1/1/5 9/9/5 12/12/5
f 4/17/6 3/18/6 11/11/6 10/10/6
f 3/18/6 6/19/6 13/13/6 11/11/6
f 5/5/5 2/2/5 12/12/5 14/14/5
f 1/1/5 8/8/5 15/15/5 9/9/5
f 7/20/6 4/17/6 10/10/6 16/16/6
f 17/21/1 18/22/1 19/23/1 20/24/1
f 19/23/2 21/25/2 22/26/2 20/24/2
f 17/21/3 23/27/3 24/28/3 18/22/3
f 25/29/4 26/30/4 27/31/4 28/32/4
f 27/31/3 26/30/3 29/33/3 30/34/3
f 25/29/2 28/32/2 31/35/2 32/36/2
f 20/24/6 26/30/6 25/29/6 17/21/6
f 18/37/5 28/32/5 27/31/5 19/38/5
f 19/38/5 27/31/5 30/34/5 21/39/5
f 22/26/6 29/33/6 26/30/6 20/24/6
f 17/21/6 25/29/6 32/36/6 23/27/6
f 24/40/5 31/35/5 28/32/5 18/37/5
f 88/41/3 89/42/3 90/43/3 91/44/3
f 91/44/5 90/43/5 92/45/5 93/46/5
f 94/47/4 88/41/4 91/44/4 93/48/4
f 89/49/1 95/50/1 92/51/1 90/52/1
f 96/53/2 99/54/2 98/55/2 97/56/2
f 98/55/1 105/57/1 104/58/1 103/59/1 102/60/1 101/61/1 100/62/1
f 106/63/3 108/64/3 107/65/3 100/62/3
f 99/66/4 96/67/4 108/64/4 106/63/4
f 100/62/1 107/65/1 97/56/1 98/55/1
f 100/62/3 101/61/3 109/68/3 106/63/3
f 110/69/5 111/70/5 104/71/5 105/72/5
f 98/55/1 113/73/1 112/74/1 105/57/1
f 110/75/4 115/76/4 114/77/4 99/66/4
f 99/54/6 114/78/6 113/79/6 98/55/6
f 105/72/5 112/80/5 115/81/5 110/69/5
f 101/61/7 102/82/8 116/83/7 109/68/8
f 102/82/9 103/84/9 117/85/9 116/83/9
f 103/84/10 104/71/11 111/70/10 117/85/11
f 106/63/4 109/68/4 116/86/4 117/87/4 111/88/4 110/75/4 99/66/4
f 88/41/3 118/89/3 119/90/3 89/42/3
f 118/89/6 120/91/6 121/92/6 119/90/6
f 94/47/4 120/93/4 118/89/4 88/41/4
f 89/49/1 119/94/1 121/95/1 95/50/1
f 96/53/2 97/56/2 123/96/2 122/97/2
f 123/96/1 129/98/1 128/99/1 127/100/1 126/101/1 125/102/1 124/103/1
f 130/104/3 129/98/3 107/65/3 108/64/3
f 122/105/4 130/104/4 108/64/4 96/67/4
f 129/98/1 123/96/1 97/56/1 107/65/1
f 129/98/3 130/104/3 131/106/3 128/99/3
f 132/107/6 124/108/6 125/109/6 133/110/6
f 123/96/1 124/103/1 135/111/1 134/112/1
f 132/113/4 122/105/4 137/114/4 136/115/4
f 122/97/5 123/96/5 134/116/5 137/117/5
f 124/108/6 132/107/6 136/118/6 135/119/6
f 128/99/12 131/106/13 138/120/12 127/121/13
f 127/121/14 138/120/14 139/122/14 126/123/14
f 126/123/15 139/122/15 133/110/15 125/109/15
f 130/104/4 122/105/4 132/113/4 133/124/4 139/125/4 138/126/4 131/106/4
f 140/127/3 141/128/3 142/129/3 143/130/3
f 143/130/5 142/129/5 144/131/5 145/132/5
f 146/133/4 140/127/4 143/130/4 145/134/4
f 141/135/1 147/136/1 144/137/1 142/138/1
f 148/139/2 151/140/2 150/141/2 149/142/2
f 150/141/1 157/143/1 156/144/1 155/145/1 154/146/1 153/147/1 152/148/1
f 158/149/3 160/150/3 159/151/3 152/148/3
f 151/152/4 148/153/4 160/150/4 158/149/4
f 152/148/1 159/151/1 149/142/1 150/141/1
f 152/148/3 153/147/3 161/154/3 158/149/3
f 162/155/5 163/156/5 156/157/5 157/158/5
f 150/141/1 165/159/1 164/160/1 157/143/1
f 162/161/4 167/162/4 166/163/4 151/152/4
f 151/140/6 166/164/6 165/165/6 150/141/6
f 157/158/5 164/166/5 167/167/5 162/155/5
f 153/147/16 154/168/17 168/169/16 161/154/17
f 154/168/9 155/170/9 169/171/9 168/169/9
f 155/170/10 156/157/11 163/156/10 169/171/11
f 158/149/4 161/154/4 168/172/4 169/173/4 163/174/4 162/161/4 151/152/4
f 140/127/3 170/175/3 171/176/3 141/128/3
f 170/175/6 172/177/6 173/178/6 171/176/6
f 146/133/4 172/179/4 170/175/4 140/127/4
f 141/135/1 171/180/1 173/181/1 147/136/1
f 148/139/2 149/142/2 175/182/2 174/183/2
f 175/182/1 181/184/1 180/185/1 179/186/1 178/187/1 177/188/1 176/189/1
f 182/190/3 181/184/3 159/151/3 160/150/3
f 174/191/4 182/190/4 160/150/4 148/153/4
f 181/184/1 175/182/1 149/142/1 159/151/1
f 181/184/3 182/190/3 183/192/3 180/185/3
f 184/193/6 176/194/6 177/195/6 185/196/6
f 175/182/1 176/189/1 187/197/1 186/198/1
f 184/199/4 174/191/4 189/200/4 188/201/4
f 174/183/5 175/182/5 186/202/5 189/203/5
f 176/194/6 184/193/6 188/204/6 187/205/6
f 180/185/18 183/192/19 190/206/18 179/207/19
f 179/207/14 190/206/14 191/208/14 178/209/14
f 178/209/20 191/208/21 185/196/20 177/195/21
f 182/190/4 174/191/4 184/199/4 185/210/4 191/211/4 190/212/4 183/192/4
s 1
f 33/213/22 36/214/23 35/215/23 34/216/22
f 37/217/24 40/218/25 39/219/25 38/220/24
f 38/221/4 39/222/4 52/223/4 51/224/4 34/225/4 35/226/4 50/227/4 49/228/4 48/229/4 47/230/4 46/231/4 45/232/4 44/233/4 43/234/4 42/235/4 41/236/4
f 53/237/26 54/238/27 47/230/27 48/229/26
f 55/239/28 56/240/29 43/241/29 44/242/28
f 36/214/23 57/243/30 50/244/30 35/245/23
f 57/243/30 58/246/31 49/247/31 50/244/30
f 58/246/32 53/237/26 48/229/26 49/247/32
f 44/248/28 45/249/33 59/250/33 55/239/28
f 45/249/33 46/251/34 60/252/34 59/250/33
f 46/251/35 47/230/27 54/238/27 60/252/35
f 38/220/24 41/253/36 61/254/36 37/217/24
f 41/253/37 42/255/38 62/256/38 61/254/37
f 42/255/38 43/257/29 56/240/29 62/256/38
f 34/258/22 51/259/39 63/260/39 33/213/22
f 51/259/39 52/261/40 64/262/40 63/260/39
f 52/261/41 39/219/25 40/218/25 64/262/41
f 54/238/1 53/237/1 58/246/1 57/243/1 36/214/1 33/213/1 63/260/1 64/262/1 40/218/1 37/217/1 61/254/1 62/256/1 56/240/1 55/239/1 59/250/1 60/252/1
f 65/263/42 66/264/5 67/265/5 68/266/42
f 69/267/6 70/268/6 71/269/6 72/270/6
f 73/271/5 74/272/5 75/273/5 76/274/5
f 73/271/3 77/275/3 78/276/3 79/277/3 72/270/3
f 80/278/2 81/279/2 82/280/2 68/281/2 67/282/2 70/283/2 69/284/2
f 71/269/1 70/285/1 67/286/1 66/264/1
f 74/272/3 73/271/3 72/270/3 71/269/3
f 77/275/3 83/287/3 66/264/3 65/263/3 78/276/3
f 83/287/3 74/272/3 71/269/3 66/264/3
f 83/287/6 77/275/6 84/288/6 85/289/6
f 77/275/1 73/271/1 76/274/1 84/288/1
f 74/272/4 83/287/4 85/289/4 75/273/4
f 65/290/3 86/291/3 78/292/3
f 86/291/3 87/293/3 78/292/3
f 87/293/3 79/277/3 78/292/3
f 80/278/43 79/277/43 87/293/44 81/294/44
f 81/294/44 87/293/44 86/295/45 82/296/45
f 82/297/45 86/298/45 65/263/42 68/266/42
f 69/284/4 72/270/4 79/277/43 80/278/43
