# Blender v2.93.0 OBJ File: 'CuartoBaked.blend'
# www.blender.org
mtllib Lights.mtl
v -2.332598 2.812283 2.855002
v -2.332598 1.909450 2.855002
v 1.184114 1.942127 -0.494662
v 1.184114 2.779606 -0.494662
v -2.332598 1.796879 2.855002
v -2.332598 0.894046 2.855002
v 1.184114 0.926723 -0.494662
v 1.184114 1.764202 -0.494662
v 0.023133 0.864104 -0.494662
v -2.332598 0.864104 1.857218
vt 0.666871 0.985258
vt 0.370335 0.985258
vt 0.370334 0.009943
vt 0.703740 0.038395
vt 0.666871 0.985258
vt 0.370335 0.985258
vt 0.370334 0.009943
vt 0.703740 0.038395
vt 0.243753 0.255188
vt 0.369453 0.006390
vt 0.369453 0.988637
vt 0.271337 0.898733
vn 0.6180 0.4483 0.6458
vn 0.6180 -0.4483 0.6458
vn 0.6259 -0.4243 0.6543
vn 0.6259 0.4243 0.6543
vn 0.0448 -0.9982 0.0404
usemtl Material
s 1
f 1/1/1 2/2/2 3/3/3 4/4/4
f 5/5/1 6/6/2 7/7/3 8/8/4
f 9/9/5 7/10/3 6/11/2 10/12/5
