# Blender v2.93.0 OBJ File: 'Cuarto.blend'
# www.blender.org
mtllib Poster.mtl
v -2.314280 -0.726941 2.475320
v -2.314279 -0.662683 2.524966
v -2.287459 -0.707946 2.509147
v -2.288200 -0.713726 2.504154
v -2.314280 -0.726941 1.221396
v -2.314280 -0.721896 1.216352
v -2.314279 0.160083 1.216352
v -2.314279 0.168487 1.220114
v -2.314279 0.193907 1.248570
v -2.314279 0.197268 1.257375
v -2.314279 0.197267 2.519921
v -2.314279 0.192223 2.524966
vt 0.000000 0.962062
vt 0.069528 1.000000
vt 0.005847 1.000000
vt 0.000000 0.995850
vt 0.000000 0.003855
vt 0.005458 0.000000
vt 0.959766 0.000000
vt 0.968860 0.002875
vt 0.996364 0.024620
vt 1.000000 0.031349
vt 1.000000 0.996145
vt 0.994542 1.000000
vn 0.4920 0.5323 -0.6890
vn 1.0000 -0.0000 -0.0000
usemtl Poster2
s 1
f 1/1/1 2/2/1 3/3/1 4/4/1
f 5/5/2 6/6/2 7/7/2 8/8/2 9/9/2 10/10/2 11/11/2 12/12/2 2/2/2 1/1/2
